<?xml version="1.0" standalone="no"?>
<!DOCTYPE svg PUBLIC "-//W3C//DTD SVG 20010904//EN"
 "http://www.w3.org/TR/2001/REC-SVG-20010904/DTD/svg10.dtd">
<svg version="1.0" xmlns="http://www.w3.org/2000/svg"
 width="256.000000pt" height="256.000000pt" viewBox="0 0 256.000000 256.000000"
 preserveAspectRatio="xMidYMid meet">

<g transform="translate(0.000000,256.000000) scale(0.100000,-0.100000)"
fill="#000000" stroke="none">
<path d="M1095 2548 c-22 -5 -80 -18 -130 -30 -110 -25 -253 -85 -360 -151
-44 -27 -82 -52 -85 -56 -3 -3 -21 -18 -40 -32 -89 -67 -201 -191 -277 -304
-44 -68 -123 -225 -123 -248 0 -8 -7 -31 -15 -50 -8 -20 -15 -51 -15 -70 0
-65 92 -207 135 -207 8 0 15 -4 15 -10 0 -5 9 -10 20 -10 11 0 20 -4 20 -10 0
-5 18 -10 40 -10 22 0 40 -4 40 -10 0 -13 182 -13 269 0 40 5 96 24 145 48
105 51 200 67 349 58 62 -3 144 -13 182 -22 78 -17 268 -20 273 -4 5 14 302
14 302 0 0 -5 18 -10 40 -10 38 0 40 2 40 30 0 17 5 30 10 30 6 0 10 27 10 60
0 33 4 60 10 60 6 0 10 14 10 30 0 17 5 30 10 30 6 0 10 11 10 25 0 31 41 75
70 75 22 0 70 -41 70 -60 0 -19 45 -57 84 -70 44 -14 189 -15 194 0 2 5 17 10
33 10 16 0 29 5 29 10 0 6 9 10 20 10 23 0 24 8 9 47 -6 15 -15 37 -19 48 -70
186 -235 407 -390 524 -19 14 -37 29 -40 32 -3 4 -41 29 -85 56 -145 89 -254
129 -503 184 -53 11 -303 10 -357 -3z"/>
<path d="M2520 1420 c0 -73 -4 -120 -10 -120 -5 0 -10 -13 -10 -30 0 -16 -4
-30 -10 -30 -5 0 -10 -9 -10 -20 0 -11 -4 -20 -10 -20 -5 0 -10 -9 -10 -20 0
-11 -4 -20 -10 -20 -5 0 -10 -7 -10 -15 0 -26 -66 -85 -95 -85 -14 0 -25 -4
-25 -10 0 -5 -9 -10 -20 -10 -11 0 -20 5 -20 10 0 6 -9 10 -19 10 -11 0 -21 6
-23 12 -7 21 -38 -17 -38 -46 0 -14 -4 -26 -10 -26 -5 0 -10 -7 -10 -15 0 -19
-64 -85 -82 -85 -8 0 -20 -9 -28 -20 -8 -11 -21 -20 -30 -20 -9 0 -22 -9 -30
-20 -8 -11 -20 -20 -28 -20 -23 0 -82 -68 -82 -95 0 -14 -4 -25 -10 -25 -5 0
-10 -22 -10 -50 0 -27 5 -50 10 -50 6 0 10 -18 10 -40 0 -22 5 -40 10 -40 6 0
10 -13 10 -30 0 -16 5 -30 10 -30 6 0 10 -9 10 -20 0 -11 5 -20 10 -20 6 0 10
-13 10 -30 0 -16 5 -30 10 -30 6 0 10 -7 10 -15 0 -20 44 -65 63 -65 15 0 85
58 152 125 133 134 239 307 301 490 18 55 30 101 46 185 12 62 14 339 3 413
-13 85 -25 49 -25 -73z"/>
<path d="M3 1288 c7 -238 34 -357 128 -553 75 -157 218 -335 349 -434 19 -14
37 -29 40 -32 3 -4 41 -29 85 -56 201 -123 445 -193 675 -193 200 0 353 37
597 146 49 21 55 34 17 34 -17 0 -39 14 -64 40 -35 37 -43 40 -90 40 -76 0
-80 8 -80 144 0 71 4 116 10 116 6 0 10 27 10 60 0 33 -4 60 -10 60 -5 0 -10
14 -10 30 0 17 -4 30 -10 30 -5 0 -10 9 -10 20 0 11 -4 20 -10 20 -5 0 -10 9
-10 20 0 19 -7 20 -190 20 -120 0 -190 4 -190 10 0 6 -33 10 -80 10 l-80 0 0
-40 c0 -22 -4 -40 -10 -40 -5 0 -10 -13 -10 -30 0 -16 -4 -30 -10 -30 -6 0
-10 -33 -10 -80 0 -47 4 -80 10 -80 6 0 10 -7 10 -15 0 -20 85 -105 105 -105
8 0 15 -4 15 -10 0 -5 9 -10 20 -10 11 0 20 -4 20 -10 0 -5 16 -10 36 -10 48
0 64 -19 64 -74 0 -39 -3 -46 -20 -46 -11 0 -20 -4 -20 -10 0 -5 -22 -10 -50
-10 -27 0 -50 5 -50 10 0 6 -13 10 -30 10 -16 0 -30 5 -30 10 0 6 -7 10 -16
10 -8 0 -42 27 -74 60 -32 33 -61 60 -64 60 -4 0 -6 -12 -6 -26 0 -43 -21 -54
-104 -54 -44 0 -76 4 -76 10 0 6 -7 10 -15 10 -19 0 -85 64 -85 82 0 8 -9 20
-20 28 -11 8 -20 21 -20 30 0 9 -9 22 -20 30 -12 8 -20 26 -20 42 0 15 -4 28
-10 28 -5 0 -10 9 -10 20 0 11 -4 20 -10 20 -5 0 -10 9 -10 20 0 11 5 20 10
20 6 0 10 9 10 20 0 11 5 20 10 20 6 0 10 8 10 18 0 10 9 24 20 32 11 8 20 21
20 30 0 9 9 22 20 30 11 8 20 22 20 32 0 10 5 18 10 18 6 0 10 9 10 20 0 11 5
20 10 20 6 0 10 9 10 20 0 11 5 20 10 20 24 0 6 35 -40 80 -28 27 -50 56 -50
64 0 9 -4 16 -10 16 -6 0 -10 30 -10 70 l0 70 -87 1 c-49 1 -102 1 -118 0 -57
-4 -239 52 -266 81 -9 10 -22 18 -28 18 -17 0 -41 25 -41 42 0 8 -9 20 -20 28
-11 8 -20 22 -20 32 0 11 -8 18 -20 18 -20 0 -21 -4 -17 -152z"/>
<path d="M780 640 c0 -11 -4 -20 -10 -20 -5 0 -10 -9 -10 -20 0 -11 -4 -20
-10 -20 -5 0 -10 -9 -10 -20 0 -11 5 -20 10 -20 6 0 10 -7 10 -15 0 -9 20 -36
45 -60 40 -40 49 -45 90 -45 25 0 45 2 45 5 0 10 -69 75 -80 75 -6 0 -22 11
-35 25 -21 20 -25 34 -25 80 0 30 -4 55 -10 55 -5 0 -10 -9 -10 -20z"/>
</g>
</svg>
