<svg width="256.000000pt" height="256.000000pt" viewBox="0 0 256.000000 256.000000" xmlns="http://www.w3.org/2000/svg">
  <g transform="translate(0.000000,256.000000) scale(0.100000,-0.100000)" fill="#5778d8" stroke="none">
    <path d="M910 2534 c-358 -107 -637 -340 -802 -672 -41 -82 -55 -133 -65 -244
l-5 -57 25 -53 c41 -87 147 -168 218 -168 15 0 31 -4 34 -10 l6 -10 95 0 c162
0 278 26 353 79 l26 19 100 15 100 16 114 -9 c63 -6 130 -15 150 -21 20 -5 90
-13 157 -16 l121 -6 7 12 7 11 139 0 139 0 6 -10 c9 -14 78 -13 93 2 7 7 12
22 12 34 0 13 4 26 10 29 5 3 10 30 10 60 0 30 5 57 10 60 6 3 10 17 10 30 0
13 5 27 10 30 5 3 10 16 10 29 0 25 28 56 52 56 16 0 48 -31 48 -46 0 -6 15
-24 33 -41 l32 -31 53 -11 c66 -14 179 -14 187 -1 3 6 16 10 28 11 33 1 82 33
85 56 5 31 -51 166 -107 263 -158 272 -404 473 -706 577 l-110 38 -300 2 -300
2 -85 -25z" />
    <path d="M2512 1548 l-12 -12 0 -112 0 -113 -10 -6 c-5 -3 -10 -14 -10 -24 0
-24 -63 -148 -91 -177 -12 -13 -32 -24 -44 -24 -11 0 -26 -5 -31 -10 l-11 -11
-29 16 c-16 8 -36 15 -45 15 -20 0 -49 -31 -49 -53 0 -33 -62 -117 -85 -117
-7 0 -20 -9 -30 -20 -10 -11 -23 -20 -30 -20 -7 0 -20 -9 -30 -20 -10 -11 -23
-20 -29 -20 -7 0 -31 -19 -54 -43 l-42 -43 0 -21 c0 -12 -4 -25 -10 -28 -5 -3
-10 -28 -10 -55 0 -27 5 -52 10 -55 6 -3 10 -21 10 -40 0 -19 5 -37 10 -40 6
-3 10 -15 10 -25 0 -11 9 -35 20 -55 11 -20 20 -42 20 -50 0 -21 20 -54 54
-92 l30 -33 41 0 40 0 66 59 c169 153 304 377 369 614 l20 74 -2 274 -3 274
-15 3 c-9 1 -21 -3 -28 -10z" />
    <path d="M1 1259 l-1 -257 26 -88 c120 -415 419 -729 829 -871 l110 -38 315 0
315 0 109 38 c121 42 246 103 246 121 0 6 -7 22 -16 34 l-15 22 -23 0 -22 0
-39 40 -38 39 -56 3 -56 3 -3 109 -3 109 11 11 c13 13 13 123 0 131 -5 3 -10
16 -11 28 0 12 -13 45 -28 72 l-27 50 -184 3 -184 2 -10 10 c-6 6 -44 10 -86
10 l-76 0 -12 -12 c-7 -7 -12 -27 -12 -44 0 -18 -5 -36 -10 -39 -5 -3 -10 -17
-10 -30 0 -13 -5 -27 -10 -30 l-10 -6 0 -75 0 -74 12 -23 c43 -76 161 -162
233 -169 l30 -3 3 -33 3 -34 -18 -14 c-21 -16 -89 -19 -98 -4 -3 6 -15 10 -26
10 -29 0 -58 19 -120 78 l-57 54 -18 -4 -19 -3 -5 -30 -5 -30 -65 -3 -64 -3
-26 12 c-34 17 -80 60 -80 74 0 7 -9 20 -20 30 -11 10 -20 23 -20 30 0 7 -9
20 -20 30 -11 10 -20 26 -20 36 0 10 -9 34 -19 53 l-20 34 25 50 c14 28 32 56
39 62 8 7 15 18 15 25 0 7 7 18 15 25 15 13 85 148 85 166 0 5 -20 30 -45 54
-25 25 -52 58 -60 74 l-15 29 0 57 0 58 -13 10 -13 11 -134 4 c-151 5 -186 10
-247 38 -24 10 -47 19 -52 19 -5 0 -15 7 -22 16 -7 9 -23 20 -36 25 -13 5 -23
15 -23 22 0 8 -9 22 -20 32 -11 10 -20 23 -20 29 0 6 -11 23 -23 37 -13 13
-27 31 -30 39 -3 8 -6 -100 -6 -241z" />
    <path d="M745 616 l-27 -56 15 -32 c9 -18 38 -55 65 -81 l49 -48 49 3 49 3 3
19 4 18 -38 39 c-21 21 -43 39 -49 39 -7 0 -19 8 -28 18 l-16 17 -3 55 -3 55
-21 3 -22 3 -27 -55z" />
  </g>
  <g transform="translate(0.000000,256.000000) scale(0.100000,-0.100000)" fill="#ffffff" stroke="none">
    <path d="M0 2020 l0 -541 25 -27 c14 -15 25 -32 25 -38 0 -6 7 -18 16 -25 9
-7 20 -23 25 -36 5 -13 15 -23 22 -23 8 0 22 -9 32 -20 10 -11 22 -20 27 -20
4 0 27 -9 51 -19 61 -28 96 -33 247 -38 l134 -4 13 -11 13 -10 0 -59 c0 -69 8
-86 72 -154 l48 -51 -36 -71 c-19 -39 -42 -77 -50 -84 -8 -6 -14 -17 -14 -24
0 -7 -7 -18 -15 -25 -8 -7 -27 -37 -41 -67 l-27 -54 22 -41 c11 -22 21 -48 21
-57 0 -10 9 -26 20 -36 11 -10 20 -23 20 -30 0 -7 9 -20 20 -30 11 -10 20 -23
20 -30 0 -14 46 -57 80 -73 l25 -13 75 3 75 3 3 25 c2 14 8 29 13 35 l9 9 58
-54 c63 -61 92 -80 121 -80 11 0 23 -4 26 -10 3 -5 27 -10 53 -10 l47 1 18 13
18 14 -3 44 -3 43 -30 3 c-72 7 -190 93 -233 169 l-12 23 0 64 c0 36 4 68 10
71 5 3 10 17 10 30 0 13 5 27 10 30 5 3 10 21 10 39 0 17 5 37 12 44 l12 12
66 0 c36 0 70 -4 76 -10 l10 -10 184 -2 184 -3 27 -50 c15 -27 28 -60 28 -72
1 -12 6 -25 11 -28 13 -8 13 -98 0 -111 l-11 -11 3 -119 3 -119 56 -3 56 -3
38 -39 39 -40 22 0 c20 0 57 -30 38 -30 -5 0 -3 -4 4 -9 l13 -8 -60 -31 c-78
-42 -176 -79 -286 -108 l-90 -23 528 -1 527 0 0 528 -1 527 -23 -90 c-65 -249
-200 -477 -375 -636 l-66 -59 -30 0 -31 0 -30 32 c-34 39 -54 72 -54 93 0 8
-9 30 -20 50 -11 20 -20 44 -20 55 0 10 -5 22 -10 25 -6 3 -10 21 -10 40 0 19
-4 37 -10 40 -5 3 -10 24 -10 45 0 21 5 42 10 45 5 3 10 16 10 28 l0 21 42 43
c23 24 47 43 54 43 6 0 19 9 29 20 10 11 23 20 30 20 7 0 20 9 30 20 10 11 23
20 30 20 24 0 85 84 85 118 0 11 9 27 19 36 l19 18 37 -18 37 -17 19 11 c10 7
27 12 37 12 10 0 29 11 41 24 28 29 91 153 91 177 0 10 4 21 10 24 l10 6 0
113 0 114 15 12 15 12 9 -23 10 -24 0 528 1 527 -527 0 -528 -1 90 -23 c351
-91 627 -300 809 -611 52 -89 110 -231 102 -250 -6 -16 -63 -45 -87 -45 -10 0
-21 -4 -24 -10 -8 -13 -101 -13 -167 1 l-53 11 -32 31 c-18 17 -33 36 -33 42
0 20 -35 45 -62 45 -30 0 -58 -28 -58 -58 0 -11 -5 -24 -10 -27 -6 -3 -10 -17
-10 -30 0 -13 -5 -27 -10 -30 -6 -3 -10 -30 -10 -60 0 -30 -5 -57 -10 -60 -6
-3 -10 -16 -10 -29 0 -12 -5 -27 -12 -34 -15 -15 -64 -16 -73 -2 l-6 10 -149
0 -149 0 -7 -11 -7 -12 -111 6 c-61 3 -127 11 -146 16 -19 6 -90 15 -158 21
l-125 10 -101 -16 -101 -16 -26 -19 c-73 -52 -191 -79 -343 -79 l-85 0 -6 10
c-3 6 -19 10 -34 10 -70 0 -177 81 -217 166 l-24 51 0 42 c0 23 4 50 10 60 5
10 10 36 12 57 l2 39 46 90 c174 347 468 583 845 681 l90 23 -527 1 -528 0 0
-540z m808 -1421 l3 -54 16 -17 c9 -10 21 -18 28 -18 6 0 28 -18 49 -39 l38
-39 -6 -11 c-4 -6 -24 -11 -44 -11 l-38 0 -49 53 c-28 28 -55 62 -62 74 l-12
21 26 52 25 51 12 -4 11 -4 3 -54z" />
    <path d="M0 528 l0 -528 528 0 527 1 -90 23 c-473 123 -818 468 -941 941 l-23
90 -1 -527z" />
  </g>
  <g transform="translate(0.000000,256.000000) scale(0.100000,-0.100000)" fill="#000000" stroke="none" />
  <g transform="translate(0.000000,256.000000) scale(0.100000,-0.100000)" fill="#000000" stroke="none" />
  <g transform="translate(0.000000,256.000000) scale(0.100000,-0.100000)" fill="#000000" stroke="none" />
  <g transform="translate(0.000000,256.000000) scale(0.100000,-0.100000)" fill="#000000" stroke="none" />
  <g transform="translate(0.000000,256.000000) scale(0.100000,-0.100000)" fill="#000000" stroke="none" />
  <g transform="translate(0.000000,256.000000) scale(0.100000,-0.100000)" fill="#000000" stroke="none" />
  <g transform="translate(0.000000,256.000000) scale(0.100000,-0.100000)" fill="#000000" stroke="none" />
  <g transform="translate(0.000000,256.000000) scale(0.100000,-0.100000)" fill="#ffffff" stroke="none" />
  <g transform="translate(0.000000,256.000000) scale(0.100000,-0.100000)" fill="#00ffff" stroke="none" />
  <g transform="translate(0.000000,256.000000) scale(0.100000,-0.100000)" fill="#ff00ff" stroke="none" />
  <g transform="translate(0.000000,256.000000) scale(0.100000,-0.100000)" fill="#0000ff" stroke="none" />
  <g transform="translate(0.000000,256.000000) scale(0.100000,-0.100000)" fill="#ffff00" stroke="none" />
  <g transform="translate(0.000000,256.000000) scale(0.100000,-0.100000)" fill="#00ff00" stroke="none" />
  <g transform="translate(0.000000,256.000000) scale(0.100000,-0.100000)" fill="#ff0000" stroke="none" />
  <g transform="translate(0.000000,256.000000) scale(0.100000,-0.100000)" fill="#c0c0c0" stroke="none" />
  <g transform="translate(0.000000,256.000000) scale(0.100000,-0.100000)" fill="#808080" stroke="none" />
  <g transform="translate(0.000000,256.000000) scale(0.100000,-0.100000)" fill="#008080" stroke="none" />
  <g transform="translate(0.000000,256.000000) scale(0.100000,-0.100000)" fill="#800080" stroke="none" />
  <g transform="translate(0.000000,256.000000) scale(0.100000,-0.100000)" fill="#000080" stroke="none" />
  <g transform="translate(0.000000,256.000000) scale(0.100000,-0.100000)" fill="#808000" stroke="none" />
  <g transform="translate(0.000000,256.000000) scale(0.100000,-0.100000)" fill="#008000" stroke="none" />
  <g transform="translate(0.000000,256.000000) scale(0.100000,-0.100000)" fill="#000000" stroke="none" />
  <g transform="translate(0.000000,256.000000) scale(0.100000,-0.100000)" fill="#000000" stroke="none" />
</svg>