<svg width="128.000000pt" height="128.000000pt" viewBox="0 0 128.000000 128.000000" xmlns="http://www.w3.org/2000/svg">
  <g transform="translate(0.000000,128.000000) scale(0.100000,-0.100000)" fill="#56bdbf" stroke="none">
    <path d="M470 1264 c-30 -8 -89 -31 -130 -51 l-75 -38 -76 -75 -76 -75 -36
-65 -36 -65 -6 -61 -7 -61 17 -36 17 -35 31 -16 c18 -8 55 -18 82 -21 l50 -7
65 12 c35 6 76 20 91 31 15 10 50 24 79 30 l53 11 81 -15 81 -16 144 -3 144
-3 13 62 c12 60 29 103 41 103 3 0 20 -13 38 -29 l33 -28 46 -7 47 -7 34 11
35 12 0 23 c0 13 -17 56 -37 96 l-38 74 -80 80 -80 80 -75 38 c-41 20 -102 44
-135 52 l-59 15 -111 -1 -110 0 -55 -15z" />
    <path d="M0 622 l0 -88 15 -59 c8 -33 32 -94 52 -135 l38 -75 80 -80 80 -80
75 -38 c41 -20 102 -44 135 -52 l59 -15 106 0 106 0 59 15 c77 20 145 51 145
65 0 20 -43 49 -72 50 l-27 0 -11 20 -10 20 6 77 6 78 -15 37 -15 37 -74 -1
c-40 0 -100 2 -134 6 l-60 8 -12 -40 c-7 -22 -12 -60 -12 -85 l0 -45 26 -31
25 -30 34 -7 c39 -7 60 -27 51 -49 l-5 -15 -40 0 -40 0 -34 30 c-39 34 -49 36
-67 15 -7 -8 -26 -15 -43 -15 l-30 0 -34 36 c-33 36 -73 103 -73 124 0 6 18
42 40 79 48 80 48 80 10 133 l-30 41 0 27 0 27 -67 0 -68 -1 -53 23 c-29 13
-63 37 -77 52 -13 16 -28 29 -34 29 l-11 0 0 -88z" />
    <path d="M1264 662 c-6 -4 -17 -24 -25 -46 -8 -21 -28 -51 -46 -67 l-33 -28
-28 5 -29 6 -13 -32 -13 -31 -56 -39 c-31 -21 -63 -45 -70 -54 l-13 -16 4 -53
c3 -28 16 -79 29 -112 l24 -60 26 -3 26 -3 65 70 65 70 36 73 c20 40 44 101
52 135 l16 62 -3 65 -3 65 -11 -7z" />
    <path d="M370 271 c0 -10 9 -30 21 -45 l20 -26 25 0 24 0 0 14 c0 8 -11 23
-25 34 -14 11 -25 25 -25 31 0 6 -9 11 -20 11 l-20 0 0 -19z" />
  </g>
  <g transform="translate(0.000000,128.000000) scale(0.100000,-0.100000)" fill="#fefefe" stroke="none">
    <path d="M0 998 l0 -281 26 -35 27 -34 56 -27 56 -26 68 0 67 0 0 -26 0 -26
31 -42 30 -43 -40 -68 c-56 -93 -49 -137 32 -224 l34 -36 40 0 41 0 12 15 12
15 35 -31 35 -30 51 3 52 3 3 23 c5 31 -12 49 -53 56 l-34 7 -25 30 -26 31 0
35 c0 20 5 53 12 75 l12 39 39 -6 c21 -4 77 -8 124 -8 l86 -1 14 -35 15 -35
-7 -77 -7 -77 11 -21 12 -21 25 0 c14 0 37 -9 51 -20 l26 -20 -44 -19 c-24
-11 -67 -25 -94 -32 -28 -7 -54 -17 -59 -21 l-10 -8 272 0 272 0 -1 278 0 277
-9 -20 c-4 -11 -15 -47 -25 -80 -25 -87 -78 -178 -149 -253 l-63 -65 -15 6
c-19 7 -58 106 -65 164 l-6 43 14 16 c7 9 39 33 70 54 l56 39 13 30 12 30 28
-6 28 -5 35 33 c19 19 43 54 53 79 l18 45 4 308 4 307 -273 0 -273 0 10 -8 c5
-4 32 -14 59 -20 28 -7 84 -29 125 -50 l75 -37 76 -75 76 -75 36 -65 c19 -36
39 -77 42 -91 l7 -27 -35 -11 -34 -12 -43 10 -42 9 -27 26 c-51 49 -73 31 -95
-76 l-12 -61 -135 2 -134 2 -84 16 -83 16 -59 -11 c-33 -6 -72 -20 -87 -31
-16 -11 -58 -25 -94 -31 l-66 -12 -55 12 -54 11 -22 20 c-12 12 -27 33 -32 47
l-10 27 6 50 7 50 36 65 35 65 76 75 76 75 75 37 c41 21 98 43 125 50 28 6 54
16 59 20 l10 8 -272 0 -272 0 0 -282z m400 -728 c0 -6 12 -22 28 -35 l27 -24
-17 -1 c-9 0 -26 12 -37 26 -23 29 -27 44 -11 44 6 0 10 -5 10 -10z" />
    <path d="M0 272 l0 -272 272 0 272 0 -9 8 c-6 4 -32 14 -60 20 -27 7 -84 29
-125 49 l-75 38 -80 80 -80 80 -38 75 c-20 41 -42 98 -49 125 -6 28 -16 54
-20 60 l-8 9 0 -272z" />
  </g>
  <g transform="translate(0.000000,128.000000) scale(0.100000,-0.100000)" fill="#61c1c3" stroke="none">
    <path d="M376 284 l-7 -27 12 -11 11 -11 -7 23 -6 22 10 0 c6 0 11 -7 11 -15
0 -8 4 -15 9 -15 l9 0 -11 30 c-14 37 -23 38 -31 4z" />
  </g>
  <g transform="translate(0.000000,128.000000) scale(0.100000,-0.100000)" fill="#eaf6f6" stroke="none" />
  <g transform="translate(0.000000,128.000000) scale(0.100000,-0.100000)" fill="#f4fafa" stroke="none" />
  <g transform="translate(0.000000,128.000000) scale(0.100000,-0.100000)" fill="#daf0f0" stroke="none" />
  <g transform="translate(0.000000,128.000000) scale(0.100000,-0.100000)" fill="#74c8ca" stroke="none" />
  <g transform="translate(0.000000,128.000000) scale(0.100000,-0.100000)" fill="#7fccce" stroke="none" />
  <g transform="translate(0.000000,128.000000) scale(0.100000,-0.100000)" fill="#ccebeb" stroke="none" />
  <g transform="translate(0.000000,128.000000) scale(0.100000,-0.100000)" fill="#a3dbdc" stroke="none" />
  <g transform="translate(0.000000,128.000000) scale(0.100000,-0.100000)" fill="#9bd7d9" stroke="none" />
  <g transform="translate(0.000000,128.000000) scale(0.100000,-0.100000)" fill="#d3edee" stroke="none" />
  <g transform="translate(0.000000,128.000000) scale(0.100000,-0.100000)" fill="#6ec6c8" stroke="none" />
  <g transform="translate(0.000000,128.000000) scale(0.100000,-0.100000)" fill="#84cfd0" stroke="none" />
  <g transform="translate(0.000000,128.000000) scale(0.100000,-0.100000)" fill="#a7dcdd" stroke="none" />
  <g transform="translate(0.000000,128.000000) scale(0.100000,-0.100000)" fill="#90d3d5" stroke="none" />
  <g transform="translate(0.000000,128.000000) scale(0.100000,-0.100000)" fill="#8bd1d3" stroke="none" />
  <g transform="translate(0.000000,128.000000) scale(0.100000,-0.100000)" fill="#b2e0e1" stroke="none" />
  <g transform="translate(0.000000,128.000000) scale(0.100000,-0.100000)" fill="#6ac4c6" stroke="none" />
  <g transform="translate(0.000000,128.000000) scale(0.100000,-0.100000)" fill="#c1e6e7" stroke="none" />
  <g transform="translate(0.000000,128.000000) scale(0.100000,-0.100000)" fill="#acdedf" stroke="none" />
  <g transform="translate(0.000000,128.000000) scale(0.100000,-0.100000)" fill="#7bcbcd" stroke="none" />
  <g transform="translate(0.000000,128.000000) scale(0.100000,-0.100000)" fill="#c5e8e8" stroke="none" />
  <g transform="translate(0.000000,128.000000) scale(0.100000,-0.100000)" fill="#bae4e4" stroke="none" />
  <g transform="translate(0.000000,128.000000) scale(0.100000,-0.100000)" fill="#e1f3f3" stroke="none" />
</svg>